{
  "accessors": [
    {
      "bufferView": 2,
      "componentType": 5126,
      "count": 65534,
      "max": [
        0.6694100499153137,
        2.095710039138794,
        0.360958456993103
      ],
      "min": [
        -0.6679834723472595,
        0.006938844919204712,
        -0.17786459624767303
      ],
      "type": "VEC3"
    },
    {
      "bufferView": 2,
      "byteOffset": 786408,
      "componentType": 5126,
      "count": 65534,
      "max": [
        1.0,
        1.0,
        1.0
      ],
      "min": [
        -1.0,
        -1.0,
        -1.0
      ],
      "type": "VEC3"
    },
    {
      "bufferView": 3,
      "componentType": 5126,
      "count": 65534,
      "max": [
        1.0,
        1.0,
        1.0,
        1.0
      ],
      "min": [
        -1.0,
        -1.0,
        -1.0,
        -1.0
      ],
      "type": "VEC4"
    },
    {
      "bufferView": 1,
      "componentType": 5126,
      "count": 65534,
      "max": [
        1.0,
        1.0
      ],
      "min": [
        0.0,
        3.635883331298828e-05
      ],
      "type": "VEC2"
    },
    {
      "bufferView": 1,
      "byteOffset": 524272,
      "componentType": 5126,
      "count": 65534,
      "max": [
        1.0,
        1.0
      ],
      "min": [
        0.0,
        3.635883331298828e-05
      ],
      "type": "VEC2"
    },
    {
      "bufferView": 1,
      "byteOffset": 1048544,
      "componentType": 5126,
      "count": 65534,
      "max": [
        1.0,
        1.0
      ],
      "min": [
        0.0,
        3.635883331298828e-05
      ],
      "type": "VEC2"
    },
    {
      "bufferView": 1,
      "byteOffset": 1572816,
      "componentType": 5126,
      "count": 65534,
      "max": [
        1.0,
        1.0
      ],
      "min": [
        0.0,
        3.635883331298828e-05
      ],
      "type": "VEC2"
    },
    {
      "bufferView": 1,
      "byteOffset": 2097088,
      "componentType": 5126,
      "count": 65534,
      "max": [
        1.0,
        1.0
      ],
      "min": [
        0.0,
        3.635883331298828e-05
      ],
      "type": "VEC2"
    },
    {
      "bufferView": 0,
      "componentType": 5125,
      "count": 123261,
      "type": "SCALAR"
    },
    {
      "bufferView": 2,
      "byteOffset": 1572816,
      "componentType": 5126,
      "count": 27137,
      "max": [
        0.6182411909103394,
        2.095710039138794,
        0.2860141098499298
      ],
      "min": [
        0.3073852062225342,
        1.7258226871490479,
        0.25656959414482117
      ],
      "type": "VEC3"
    },
    {
      "bufferView": 2,
      "byteOffset": 1898460,
      "componentType": 5126,
      "count": 27137,
      "max": [
        1.0,
        1.0,
        1.0
      ],
      "min": [
        -1.0,
        -0.9999986886978149,
        -1.0
      ],
      "type": "VEC3"
    },
    {
      "bufferView": 3,
      "byteOffset": 1048544,
      "componentType": 5126,
      "count": 27137,
      "max": [
        1.0,
        0.9999783635139465,
        1.0,
        1.0
      ],
      "min": [
        -1.0,
        -0.9999656081199646,
        -1.0,
        -1.0
      ],
      "type": "VEC4"
    },
    {
      "bufferView": 1,
      "byteOffset": 2621360,
      "componentType": 5126,
      "count": 27137,
      "max": [
        0.983988344669342,
        0.8145501613616943
      ],
      "min": [
        0.026506587862968445,
        0.012079060077667236
      ],
      "type": "VEC2"
    },
    {
      "bufferView": 1,
      "byteOffset": 2838456,
      "componentType": 5126,
      "count": 27137,
      "max": [
        0.983988344669342,
        0.8145501613616943
      ],
      "min": [
        0.026506587862968445,
        0.012079060077667236
      ],
      "type": "VEC2"
    },
    {
      "bufferView": 1,
      "byteOffset": 3055552,
      "componentType": 5126,
      "count": 27137,
      "max": [
        0.983988344669342,
        0.8145501613616943
      ],
      "min": [
        0.026506587862968445,
        0.012079060077667236
      ],
      "type": "VEC2"
    },
    {
      "bufferView": 1,
      "byteOffset": 3272648,
      "componentType": 5126,
      "count": 27137,
      "max": [
        0.983988344669342,
        0.8145501613616943
      ],
      "min": [
        0.026506587862968445,
        0.012079060077667236
      ],
      "type": "VEC2"
    },
    {
      "bufferView": 1,
      "byteOffset": 3489744,
      "componentType": 5126,
      "count": 27137,
      "max": [
        0.983988344669342,
        0.8145501613616943
      ],
      "min": [
        0.026506587862968445,
        0.012079060077667236
      ],
      "type": "VEC2"
    },
    {
      "bufferView": 0,
      "byteOffset": 493044,
      "componentType": 5125,
      "count": 36327,
      "type": "SCALAR"
    }
  ],
  "asset": {
    "extras": {
      "author": "JustFaith (https://sketchfab.com/charljustine)",
      "license": "CC-BY-4.0 (http://creativecommons.org/licenses/by/4.0/)",
      "source": "https://sketchfab.com/3d-models/ramen-vending-machine-3d3c8affeaa44620b7a04fa4a987ff99",
      "title": "Ramen Vending Machine"
    },
    "generator": "Sketchfab-14.42.0",
    "version": "2.0"
  },
  "bufferViews": [
    {
      "buffer": 0,
      "byteLength": 638352,
      "name": "floatBufferViews",
      "target": 34963
    },
    {
      "buffer": 0,
      "byteLength": 3706840,
      "byteOffset": 638352,
      "byteStride": 8,
      "name": "floatBufferViews",
      "target": 34962
    },
    {
      "buffer": 0,
      "byteLength": 2224104,
      "byteOffset": 4345192,
      "byteStride": 12,
      "name": "floatBufferViews",
      "target": 34962
    },
    {
      "buffer": 0,
      "byteLength": 1482736,
      "byteOffset": 6569296,
      "byteStride": 16,
      "name": "floatBufferViews",
      "target": 34962
    }
  ],
  "buffers": [
    {
      "byteLength": 8052032,
      "uri": "f.bin"
    }
  ],
  "images": [
    {
      "uri": "textures/Ramen_Machine_baseColor.png"
    },
    {
      "uri": "textures/Ramen_Machine_metallicRoughness.png"
    },
    {
      "uri": "textures/Ramen_Machine_emissive.png"
    },
    {
      "uri": "textures/Ramen_Machine_normal.png"
    }
  ],
  "materials": [
    {
      "doubleSided": true,
      "emissiveFactor": [
        1.0,
        1.0,
        1.0
      ],
      "emissiveTexture": {
        "index": 2,
        "texCoord": 2
      },
      "name": "Ramen_Machine",
      "normalTexture": {
        "index": 3,
        "texCoord": 3
      },
      "pbrMetallicRoughness": {
        "baseColorTexture": {
          "index": 0
        },
        "metallicRoughnessTexture": {
          "index": 1,
          "texCoord": 1
        }
      }
    }
  ],
  "meshes": [
    {
      "name": "Object_0",
      "primitives": [
        {
          "attributes": {
            "NORMAL": 1,
            "POSITION": 0,
            "TANGENT": 2,
            "TEXCOORD_0": 3,
            "TEXCOORD_1": 4,
            "TEXCOORD_2": 5,
            "TEXCOORD_3": 6,
            "TEXCOORD_4": 7
          },
          "indices": 8,
          "material": 0,
          "mode": 4
        }
      ]
    },
    {
      "name": "Object_1",
      "primitives": [
        {
          "attributes": {
            "NORMAL": 10,
            "POSITION": 9,
            "TANGENT": 11,
            "TEXCOORD_0": 12,
            "TEXCOORD_1": 13,
            "TEXCOORD_2": 14,
            "TEXCOORD_3": 15,
            "TEXCOORD_4": 16
          },
          "indices": 17,
          "material": 0,
          "mode": 4
        }
      ]
    }
  ],
  "nodes": [
    {
      "children": [
        1
      ],
      "matrix": [
        1.0,
        0.0,
        0.0,
        0.0,
        0.0,
        2.220446049250313e-16,
        -1.0,
        0.0,
        0.0,
        1.0,
        2.220446049250313e-16,
        0.0,
        0.0,
        0.0,
        0.0,
        1.0
      ],
      "name": "Sketchfab_model"
    },
    {
      "children": [
        2
      ],
      "name": "root"
    },
    {
      "children": [
        3
      ],
      "matrix": [
        1.0,
        0.0,
        0.0,
        0.0,
        0.0,
        2.220446049250313e-16,
        1.0,
        0.0,
        0.0,
        -1.0,
        2.220446049250313e-16,
        0.0,
        0.0,
        0.0,
        0.0,
        1.0
      ],
      "name": "GLTF_SceneRootNode"
    },
    {
      "children": [
        4,
        5
      ],
      "name": "Cube.428_1"
    },
    {
      "mesh": 0,
      "name": "Object_4"
    },
    {
      "mesh": 1,
      "name": "Object_5"
    }
  ],
  "samplers": [
    {
      "magFilter": 9729,
      "minFilter": 9987,
      "wrapS": 10497,
      "wrapT": 10497
    }
  ],
  "scene": 0,
  "scenes": [
    {
      "name": "Sketchfab_Scene",
      "nodes": [
        0
      ]
    }
  ],
  "textures": [
    {
      "sampler": 0,
      "source": 0
    },
    {
      "sampler": 0,
      "source": 1
    },
    {
      "sampler": 0,
      "source": 2
    },
    {
      "sampler": 0,
      "source": 3
    }
  ]
}
